HIERARCHY
ROOT Hips
{
	OFFSET -0.179506 -22.333345 2.821913
	CHANNELS 6 Xposition Yposition Zposition Zrotation Yrotation Xrotation 
	JOINT LeftUpLeg
	{
		OFFSET 6.951974 -9.140623 -0.681533
		CHANNELS 3 Zrotation Yrotation Xrotation
		JOINT LeftLeg
		{
			OFFSET 3.427654 -37.519855 -0.449580
			CHANNELS 3 Zrotation Yrotation Xrotation
			JOINT LeftFoot
			{
				OFFSET -1.359570 -39.796059 -4.369333
				CHANNELS 3 Zrotation Yrotation Xrotation
				JOINT LeftToe
				{
					OFFSET 2.635814 -5.579078 11.928840
					CHANNELS 3 Zrotation Yrotation Xrotation
					End Site
					{
						OFFSET 0.000000 0.000000 0.000000
					}
				}
			}
		}
	}
	JOINT RightUpLeg
	{
		OFFSET -6.767048 -9.052170 -0.431982
		CHANNELS 3 Zrotation Yrotation Xrotation
		JOINT RightLeg
		{
			OFFSET -3.829005 -38.256897 -0.885003
			CHANNELS 3 Zrotation Yrotation Xrotation
			JOINT RightFoot
			{
				OFFSET 1.577377 -39.841461 -4.231180
				CHANNELS 3 Zrotation Yrotation Xrotation
				JOINT RightToe
				{
					OFFSET -2.537174 -4.814398 12.334795
					CHANNELS 3 Zrotation Yrotation Xrotation
					End Site
					{
						OFFSET 0.000000 0.000000 0.000000
					}
				}
			}
		}
	}
	JOINT Spine
	{
		OFFSET -0.253288 10.896323 -2.669631
		CHANNELS 3 Zrotation Yrotation Xrotation
		JOINT Spine1
		{
			OFFSET 0.548704 13.518043 0.109247
			CHANNELS 3 Zrotation Yrotation Xrotation
			JOINT Spine2
			{
				OFFSET 0.145701 5.292222 2.542457
				CHANNELS 3 Zrotation Yrotation Xrotation
				JOINT Neck
				{
					OFFSET -0.277840 21.387037 -4.285703
					CHANNELS 3 Zrotation Yrotation Xrotation
					JOINT Head
					{
						OFFSET 0.515184 6.496960 5.134897
						CHANNELS 3 Zrotation Yrotation Xrotation
						End Site
						{
							OFFSET 0.000000 0.000000 0.000000
						}
					}
				}
				JOINT LeftShoulder
				{
					OFFSET 7.884473 12.174932 -3.408961
					CHANNELS 3 Zrotation Yrotation Xrotation
					JOINT LeftArm
					{
						OFFSET 9.097692 3.046888 -0.886815
						CHANNELS 3 Zrotation Yrotation Xrotation
						JOINT LeftForeArm
						{
							OFFSET 25.961220 -1.277207 -2.745643
							CHANNELS 3 Zrotation Yrotation Xrotation
							JOINT LeftHand
							{
								OFFSET 24.923361 0.898606 -0.117091
								CHANNELS 3 Zrotation Yrotation Xrotation
								End Site
								{
									OFFSET 0.000000 0.000000 0.000000
								}
							}
						}
					}
				}
				JOINT RightShoulder
				{
					OFFSET -8.175920 11.883285 -3.861528
					CHANNELS 3 Zrotation Yrotation Xrotation
					JOINT RightArm
					{
						OFFSET -9.601238 3.255117 -0.914307
						CHANNELS 3 Zrotation Yrotation Xrotation
						JOINT RightForeArm
						{
							OFFSET -25.374195 -1.332924 -2.140099
							CHANNELS 3 Zrotation Yrotation Xrotation
							JOINT RightHand
							{
								OFFSET -25.529810 0.777228 -0.555919
								CHANNELS 3 Zrotation Yrotation Xrotation
								End Site
								{
									OFFSET 0.000000 0.000000 0.000000
								}
							}
						}
					}
				}
			}
		}
	}
}
MOTION
Frames: 9
Frame Time: 0.033333
148.647156 -121.645958 83.146965 -119.397510 0.141528 101.052564 4.000322 2.295611 11.368037 -19.373860 -33.262096 26.971228 1.557836 11.660990 -36.771497 nan nan nan -14.606000 13.049857 -69.426047 -0.237776 -9.658761 86.989316 7.558799 -10.578536 -24.112187 nan nan nan 1.062372 -23.791322 33.709955 4.002455 -10.403342 -11.353912 2.352625 -10.148894 0.563514 -4.802176 10.283470 -19.291535 10.828911 8.667308 -19.943742 3.779287 -29.275127 -7.657272 -4.292442 -24.967250 -5.950657 110.127880 -67.206719 -89.136733 19.648585 -30.834092 13.889664 0.137205 0.171764 -5.635653 11.920875 -39.048755 16.312740 50.279313 41.621821 81.889856 5.693089 15.478512 18.418629 
146.496170 -119.953049 83.665894 -119.747571 1.483262 101.406402 5.033321 1.942204 14.459147 -16.750501 -35.084193 23.089535 -0.808058 12.260106 -34.502292 nan nan nan -14.720586 13.268411 -70.901191 0.287151 -10.684670 83.092837 7.515434 -10.591825 -23.116628 nan nan nan 2.156926 -25.034986 32.242601 4.536433 -10.430896 -9.410184 2.578890 -9.610873 0.025766 -5.787776 11.290570 -20.528042 10.047517 8.803443 -19.693787 6.418856 -28.176378 -7.903462 -5.787590 -24.788852 -6.298124 111.012320 -66.095375 -89.215138 18.927343 -31.327713 13.064566 -1.442631 -0.323135 -4.160283 13.300418 -40.194323 14.751013 50.680940 43.559002 82.352428 6.784907 16.447089 15.650006 
144.293671 -118.267677 84.235672 -120.245580 2.788895 101.723875 5.683573 1.632165 17.342267 -13.594416 -36.295770 19.218901 -2.833818 13.274398 -31.771141 nan nan nan -14.621315 13.572448 -71.873997 0.856187 -11.641546 78.836499 7.576666 -10.698301 -21.824679 nan nan nan 3.407668 -26.006534 30.786171 4.954902 -10.437633 -7.524821 2.786000 -9.202986 -0.472347 -6.904286 11.950520 -21.750998 9.303695 9.148169 -19.542703 8.192465 -27.259139 -7.715992 -6.775524 -24.513878 -6.949819 111.944584 -65.478422 -89.652658 18.544256 -31.704421 12.518478 -2.813617 -0.699166 -2.611601 14.910252 -41.417888 13.132626 51.176667 45.453457 82.369288 6.473671 17.788293 12.276504 
142.017334 -116.578339 84.830788 -120.953197 3.887541 101.963748 5.748360 1.252471 20.074717 -10.022465 -36.565126 15.305222 -4.638370 14.274557 -28.294242 nan nan nan -14.320073 13.953171 -72.393897 1.546853 -12.335529 74.431401 7.897896 -10.717733 -20.513154 nan nan nan 4.629553 -26.539124 29.494068 5.261879 -10.444595 -5.723959 2.976959 -8.811175 -1.191320 -7.918433 12.416322 -22.854230 8.629095 9.453249 -19.283679 9.478496 -26.452175 -7.541558 -8.094735 -24.526137 -7.460654 113.013537 -65.287034 -90.105098 17.518734 -32.185294 11.660086 -3.839893 -1.221082 -1.235530 16.827095 -42.609827 11.477972 51.596877 47.660210 82.799462 6.561993 17.911166 10.036320 
139.672211 -114.857658 85.421761 -121.814022 5.018370 102.009512 5.681343 1.208966 22.862064 -6.158437 -36.409954 11.358357 -6.339910 15.192006 -23.957244 nan nan nan -13.560533 14.530688 -72.343714 2.181077 -12.738222 70.019136 8.172721 -10.360644 -19.234976 nan nan nan 5.756542 -26.822286 28.423771 5.486305 -10.454272 -3.784533 3.341346 -8.407673 -2.106862 -9.001037 12.818485 -23.277500 8.011693 9.797015 -19.538186 10.549603 -26.271572 -7.285588 -9.609804 -24.182971 -7.683573 114.282707 -65.138439 -90.625962 17.254778 -31.393178 12.127282 -4.890343 -1.212190 0.434830 19.482720 -43.894409 8.708785 52.313948 49.130252 83.107464 5.556125 17.851264 7.665671 
137.339706 -113.153053 86.001976 -122.761624 6.127690 101.797732 5.320600 1.114964 25.672851 -2.283291 -35.590268 7.600872 -7.986687 15.841053 -19.020890 nan nan nan -12.564809 15.240553 -71.689126 2.648826 -13.065705 65.599620 8.608477 -9.301718 -17.761525 nan nan nan 6.525624 -26.824533 27.931281 5.919315 -10.492617 -2.056821 3.729979 -8.318370 -2.988457 -9.509716 13.905153 -23.257973 6.792726 10.062040 -20.119101 10.790910 -25.375339 -6.932080 -10.811151 -24.616748 -7.478376 114.591461 -65.369695 -90.632875 16.412735 -32.522386 11.614605 -5.591420 -2.296763 0.189155 19.397062 -43.357833 9.167353 54.201438 50.325181 84.607209 4.805848 18.748429 4.677659 
134.989334 -111.354057 86.524635 -123.974530 7.217826 101.405872 4.619905 0.900178 28.651448 1.315684 -34.190776 3.964868 -8.573697 16.430488 -13.420247 nan nan nan -11.187639 16.161616 -70.641541 2.821276 -13.398457 61.362585 8.633025 -7.812207 -16.278277 nan nan nan 7.279879 -26.807699 27.701239 6.037158 -10.483155 -0.430364 3.970296 -7.431850 -3.790611 -11.006773 14.187949 -23.158974 6.796059 10.017704 -21.195031 11.414170 -25.622168 -6.824145 -13.065538 -24.553342 -6.422197 115.000207 -64.876275 -91.328027 15.596128 -33.736314 12.087375 -5.701818 -1.162786 3.596163 24.907307 -45.178666 5.356822 52.669584 53.495531 82.675019 3.249282 19.627454 4.813686 
132.619431 -109.532188 86.971169 -125.326848 8.368464 100.946933 4.021678 0.968255 31.433362 4.187214 -32.463948 0.895929 -8.247557 17.032464 -7.848368 nan nan nan -9.376119 17.166897 -69.313539 3.289003 -13.364863 57.195267 8.750710 -6.412066 -14.817306 nan nan nan 7.937000 -27.049974 27.795082 5.715514 -10.037549 1.042876 4.350426 -6.401055 -4.746225 -12.239131 13.165465 -22.626722 7.493063 11.179367 -21.996091 12.324045 -26.414644 -6.651732 -15.927426 -24.013054 -5.760417 117.434006 -64.892371 -93.234557 16.111475 -33.023516 13.464599 -7.086945 1.705189 7.989729 34.763496 -46.824406 -0.705359 49.162535 56.157353 78.308499 1.654644 20.617356 4.364803 
130.290268 -107.778870 87.326546 -126.526877 9.359195 100.758514 3.528784 1.117154 33.224920 5.974921 -30.464884 -1.088385 -6.711504 17.169367 -1.885990 nan nan nan -7.641796 17.826108 -68.021964 4.376254 -13.069052 53.295452 8.580452 -5.465046 -13.664787 nan nan nan 8.603895 -27.364372 27.433444 5.297387 -9.390875 2.318484 4.675764 -5.826584 -5.339819 -13.222679 11.808580 -21.571643 8.307835 13.137709 -23.142521 13.544628 -26.320287 -6.478963 -19.260820 -24.030138 -5.647944 122.347016 -65.743158 -96.344326 17.770789 -29.834262 15.037750 -10.394921 4.379077 12.617714 47.453185 -45.102841 -6.081479 42.576658 59.357326 71.667474 1.611815 20.924870 2.985115 
